<svg width="132" height="101" viewBox="0 0 132 101" fill="none" xmlns="http://www.w3.org/2000/svg">
<path d="M130.644 57.9477C130.69 70.3745 130.701 82.6261 130.69 95.0498C130.547 95.4353 130.374 95.6396 130.315 95.8626C129.478 99.0166 128.937 99.5055 125.742 99.4001C123.567 99.3284 121.323 99.3663 119.619 97.5571C119.112 97.0194 118.302 96.957 117.568 96.8542C115.202 96.523 113.003 95.4683 110.611 95.2375C110.24 95.2017 109.801 95.0321 109.689 94.7038C109.078 92.9139 107.594 92.2369 106.058 91.4218C104.695 90.6984 104.745 88.2951 105.895 87.0241C107.924 84.7797 107.924 84.7797 105.713 82.9529C104.958 82.3291 104.591 81.4455 104.497 80.5497C104.139 77.1476 104.269 73.7178 104.022 70.3018C103.935 69.1022 104.356 67.8008 104.229 66.5251C103.504 59.2262 104.266 51.8941 103.722 44.4256C103.696 42.5013 103.72 40.7427 103.732 38.8009C104.001 35.1743 103.993 31.7298 103.74 28.1053C103.736 26.0119 103.686 24.0971 103.742 22.0121C103.945 18.3863 104.178 14.9318 103.473 11.3334C103.195 9.82191 102.729 8.56583 101.992 7.40209C100.408 4.90229 102.526 0.705248 105.465 0.52526C106.221 0.478945 106.984 0.550212 107.903 0.385124C112.322 0.349355 116.574 0.327432 120.991 0.412848C123.883 1.00734 126.637 0.622334 129.535 0.637189C129.887 0.508352 130.09 0.446687 130.455 0.426682C131.038 0.633979 131.102 1.04483 131.195 1.57249C131.158 1.80235 131.134 1.8911 131.067 2.10858C130.618 2.68641 130.154 3.11964 130.635 3.92231C131.098 6.21856 130.838 8.41628 130.84 10.6028C130.845 15.2331 130.764 19.8634 130.694 24.6539C130.721 27.3511 130.411 29.8853 130.647 32.5877C130.691 32.8946 130.7 33.0371 130.692 33.2856C130.516 34.069 130.559 34.7524 130.641 35.5616C130.68 37.592 130.69 39.497 130.678 41.5616C131.006 42.3372 130.983 43.0189 130.902 43.6727C130.32 48.3638 130.629 53.0712 130.644 57.9477Z" fill="#E97064"/>
<path d="M62.7342 0.75158C63.1685 0.798356 63.4525 0.799175 63.8758 0.829401C66.7925 1.23343 66.7726 3.86396 67.4769 5.62985C68.0799 7.14163 68.689 8.7174 69.1639 10.3058C69.88 12.7008 70.5352 15.1049 71.3427 17.4814C72.392 20.5699 73.6911 23.5775 74.5842 26.7093C75.7822 30.9104 77.0198 35.1052 78.5241 39.195C79.3264 41.3765 79.8989 43.6259 80.7514 45.7882C81.6652 48.1062 82.3479 50.5101 83.3237 52.8132C83.7417 53.7999 84.0599 54.2731 85.0417 53.4405C85.6583 52.9177 86.2392 52.9779 86.7468 53.842C86.8439 54.0737 86.8788 54.1672 86.9341 54.406C86.946 54.6471 86.9376 54.7427 86.8982 54.9767C86.8098 55.4746 86.7871 55.8446 86.4932 56.2646C85.9611 56.8609 85.6107 57.397 85.6804 58.2324C85.7195 58.6761 85.7124 58.9998 85.717 59.4443C85.7411 59.6934 85.7642 59.8213 85.7788 60.0467C86.4116 61.1152 86.0576 62.2781 86.4161 63.4566C87.3073 67.2934 88.9118 70.7479 89.8876 74.5439C90.3683 75.4783 89.7198 76.6228 90.7939 77.3734C91.1569 78.9037 91.9489 80.1751 91.9545 81.7961C91.7575 82.2169 91.5073 82.3951 91.2891 82.6067C90.0729 83.7863 89.2928 83.6534 88.5521 82.1294C87.3121 79.5781 87.3108 79.5753 84.6554 80.7453C83.5779 81.2201 82.4654 81.4539 81.2788 81.3968C80.2126 81.3455 79.374 81.0115 78.9974 79.9244C78.4819 78.4364 77.3516 78.0766 75.9347 78.2778C74.2532 78.5165 72.5686 78.6189 70.9189 79.1834C68.5974 79.9778 66.7077 78.9587 65.3514 76.8308C64.6585 75.7437 64.1459 74.3016 62.4051 73.9945C61.5722 73.1257 61.5892 72.0977 61.3645 71.0094C62.5566 69.0663 62.3904 68.3832 60.4344 67.1881C60.0233 66.9369 59.6014 66.7265 59.3104 66.1442C58.226 63.4947 57.4185 60.8983 56.5428 58.1715C56.2737 57.1695 55.8298 56.3867 55.5345 55.3841C53.4219 48.9118 51.1014 42.6753 48.9089 36.3946C47.68 32.8744 46.1536 29.46 44.8189 25.9749C44.6272 25.4743 44.659 24.5541 43.8088 24.7153C42.9636 24.8755 43.2354 25.7898 43.2388 26.3168C43.291 34.4149 43.3578 42.5146 43.3716 50.6113C43.3818 56.585 44.2861 62.478 44.4246 68.4278C44.4482 69.4427 44.934 70.284 45.5711 71.0738C46.1688 71.8148 46.284 72.6694 45.4812 73.3548C44.0628 74.5659 42.6941 73.4443 41.3156 73.1723C40.3484 72.9815 40.2327 72.2519 40.1005 71.3896C39.5041 67.4977 39.8416 63.7025 40.8222 59.9002C41.2758 58.1412 41.0048 56.2557 41.0297 54.4399C41.1727 44.0305 40.9637 33.6191 41.0783 23.2073C41.0972 21.4907 41.1571 19.7231 40.9947 18.0362C40.653 14.4853 39.4425 11.1503 36.7302 8.63191C35.147 7.16191 33.6394 5.52221 31.257 4.93677C29.5045 3.46269 27.4621 3.21752 25.4675 2.95443C23.0904 2.64091 20.8088 3.10034 18.5679 4.33146C18.4606 4.44031 18.4496 4.40852 18.4608 4.42109C18.2176 4.60251 17.9404 4.71654 17.6526 4.82018C16.8961 5.09264 16.2016 5.14659 15.8291 4.26085C15.4588 3.38052 15.6015 2.65149 16.5495 2.2036C18.6492 1.21147 20.9254 0.933241 23.1812 0.617515C23.5756 0.562336 23.9945 0.556199 24.5712 0.419855C36.7197 0.193731 48.6892 0.68545 60.829 0.535835C61.5308 0.544092 62.0717 0.490652 62.7342 0.75158Z" fill="#E97064"/>
<path d="M30.8626 4.65766C31.8897 4.44965 32.6561 4.70628 33.5288 5.19485C37.957 7.6741 40.2279 11.6316 41.4562 16.3514C41.5474 16.7019 41.5705 17.0786 41.571 17.4432C41.584 26.6109 41.594 35.7787 41.594 44.9464C41.594 47.6917 41.5912 50.446 41.673 53.1798C41.7891 57.0614 40.8463 60.8238 40.8295 64.6531C40.8208 66.6272 40.5347 68.5597 41.3889 70.6849C41.9278 72.0255 42.639 72.275 43.4776 72.8168C43.9237 73.105 44.4668 73.06 44.814 72.6267C45.248 72.0851 44.8232 71.7158 44.4085 71.4332C43.6667 70.9278 43.4535 70.2043 43.4527 69.3658C43.4461 63.0188 42.9669 56.6893 42.933 50.3334C42.8887 42.018 42.7585 33.6963 42.7158 25.3768C42.7096 24.175 42.591 22.9302 43.5322 21.5987C44.6742 23.2915 44.9857 25.1641 45.6818 26.8476C47.5932 31.4697 49.5241 36.0884 51.2501 40.781C52.9944 45.5232 54.7793 50.2637 55.9202 55.3566C55.8104 55.6259 55.6598 55.6845 55.3904 55.5776C53.4051 51.7117 52.2335 47.6607 50.8166 43.7027C48.7371 37.8937 46.6473 32.0885 44.5546 26.2843C44.4567 26.0129 44.2879 25.7672 44.073 25.3593C43.4443 26.0237 43.6332 26.713 43.6335 27.3263C43.6374 36.0855 43.1917 44.876 43.7799 53.5966C44.6932 67.1373 47.3845 80.2736 56.2589 91.2601C58.5242 94.0645 61.4697 96.0239 64.4925 97.903C65.2981 98.4038 66.8795 98.6304 66.4719 99.8898C66.1098 101.009 64.6511 100.571 63.6618 100.574C53.6166 100.604 43.5711 100.562 33.5261 100.615C28.9965 100.638 24.4681 100.843 19.9384 100.932C19.1172 100.949 18.0869 101.153 17.7686 100.049C17.4378 98.9027 18.3541 98.3963 19.1575 97.9542C26.3236 94.0108 31.2318 88.0626 34.6545 80.7362C37.2845 75.1067 38.7477 69.1769 39.4832 63.0433C39.6149 61.9453 40.2417 60.9592 40.1655 59.6718C40.5308 59.1458 40.5775 58.7335 40.2678 58.1981C41.1442 45.7159 40.4053 33.3032 40.6304 20.9022C40.7667 13.3958 37.2937 8.26973 30.7069 4.84595C30.6805 4.69884 30.7287 4.6492 30.8626 4.65766Z" fill="#E97064"/>
<path d="M62.2059 70.4321C62.2476 71.5173 62.0113 72.5188 62.8349 73.4209C64.2014 74.9041 65.1901 76.4696 65.894 78.3616C65.7598 79.2081 65.556 79.9075 65.9842 80.7127C66.3933 81.1461 66.5504 81.5854 66.912 82.0499C67.3616 82.7845 67.673 83.432 67.732 84.305C67.8861 87.1879 69.9404 89.1127 70.8378 91.5444C71.1194 92.3075 71.9622 92.4189 72.7217 92.4392C74.1899 92.4786 75.6591 92.426 77.127 92.4688C78.572 92.511 79.7844 92.8535 80.0833 94.5724C80.2517 95.541 80.9777 95.9889 81.9246 96.0779C82.8402 96.1641 83.7584 96.1426 84.6756 96.103C85.6896 96.0592 86.2891 95.5696 86.2897 94.5122C86.2901 93.593 86.6646 92.9067 87.3391 92.2773C88.2535 91.4239 88.4808 90.285 88.3179 89.0684C88.2367 88.4619 88.132 87.8624 88.2343 87.2444C88.3226 86.711 88.5829 86.3332 89.0981 86.1643C89.6925 85.9694 90.1748 86.1763 90.5745 86.6269C90.6561 86.7188 90.7385 86.811 90.7938 86.9203C91.8932 89.091 93.2408 91.1024 95.0901 93.1839C92.5905 90.3123 92.6685 86.745 91.1593 83.7879C90.8901 83.2605 90.9895 82.7276 91.1694 82.0817C91.1033 80.5376 90.6281 79.1898 90.1522 77.6989C89.5702 76.8824 89.1087 76.157 89.0396 75.1165C88.7981 71.5366 87.0404 68.5311 86.1767 65.2625C86.023 64.6811 85.7399 64.1348 85.7453 63.3667C86.6108 63.1247 86.6108 63.1247 87.3383 64.9364C90.1046 73.1097 92.8132 81.1562 95.5205 89.203C96.5332 92.2128 97.5791 95.2121 98.5399 98.2384C99.1182 100.06 98.7944 100.502 96.9454 100.51C88.9847 100.543 81.0236 100.512 73.0633 100.584C71.3578 100.6 70.6098 99.8832 70.0641 98.3234C66.3356 87.6673 62.5019 77.0481 58.7348 66.4054C57.5736 63.1249 56.5143 59.8083 55.4062 56.3766C56.7866 55.6376 56.2762 57.2089 56.9564 57.6109C57.65 59.564 58.2865 61.4108 58.8387 63.2824C59.0534 64.0104 59.3861 64.6369 59.9213 65.3215C60.8851 66.9802 62.3442 68.272 62.2059 70.4321Z" fill="#E97064"/>
<path d="M86.5245 54.4685C85.7797 53.7656 85.2427 53.898 84.7649 54.6031C84.1772 55.4704 83.7023 55.2889 83.3628 54.4129C82.0886 51.1244 80.6338 47.8902 79.6031 44.5263C77.7755 38.5609 75.8951 32.6058 74.0457 26.6511C72.8315 22.7419 71.4629 18.7833 69.5727 15.0819C69.2007 14.3536 69.1669 13.5521 69.162 12.7525C69.1535 11.3699 68.8254 10.0777 67.9912 8.95929C67.0097 7.64344 67.0929 5.95466 66.3474 4.51568C65.7008 3.2677 65.0652 2.08205 64.0469 0.972518C65.5304 0.569997 66.4925 0.911528 67.0278 2.62553C69.4839 10.4905 72.0573 18.319 74.6227 26.1495C77.0394 33.5263 79.4856 40.8936 81.9487 48.255C82.5428 50.0306 83.2548 51.7667 84.2241 53.5693C87.8952 45.0439 90.4691 36.1793 93.324 27.4236C96.1688 18.6991 99.2491 10.0581 102.256 1.24928C102.764 0.383781 103.582 0.430938 104.387 0.154022C105.464 0.0814186 106.434 0.0726219 107.564 0.080476C107.869 0.160081 107.954 0.267365 107.916 0.52468C107.405 0.767914 106.943 1.04609 106.488 1.03546C103.979 0.976883 102.71 2.18832 102.333 4.64305C102.202 5.49833 102.05 6.05938 102.891 6.65372C104.363 7.69462 103.475 9.35058 103.746 10.886C104.371 11.9442 104.035 12.9504 104.082 13.9021C104.205 16.3935 103.906 18.8952 104.346 21.5186C104.446 23.6392 104.446 25.6242 104.443 27.7831C103.843 28.7176 104.094 29.612 104.11 30.4405C104.161 33.0646 103.893 35.6952 104.349 38.4392C104.448 40.4244 104.45 42.2834 104.451 44.3153C103.896 45.1889 104.104 46.0166 104.102 46.7923C104.085 54.0823 104.102 61.3722 104.168 68.6622C104.184 70.4446 104.139 72.2226 104.247 74.0067C104.284 74.6273 104.537 75.5701 103.319 75.746C103.117 70.0251 103.055 64.3924 103.044 58.7596C103.016 43.4497 103.014 28.1398 102.984 12.8299C102.982 12.1367 103.193 11.3882 102.645 10.5911C101.562 12.1274 101.18 13.8598 100.653 15.4783C98.8622 20.973 97.0051 26.442 94.9867 31.8569C94.8821 32.1373 94.8897 32.4595 94.8009 32.9001C93.0996 36.8006 91.8796 40.7181 90.5695 44.7481C90.577 45.7228 90.0241 46.3754 89.7285 47.2503C89.5821 47.5601 89.4394 47.7228 89.335 48.0289C89.2865 48.2921 89.2679 48.4527 89.2208 48.7312C88.1764 50.0629 88.3246 51.7303 87.524 53.1628C87.4839 53.4447 87.4781 53.6052 87.4419 53.8823C87.2311 54.2939 87.0549 54.595 86.5245 54.4685Z" fill="#E97064"/>
<path d="M103.139 75.8361C103.95 74.926 103.719 73.9592 103.721 73.07C103.739 64.4098 103.73 55.7495 103.747 47.0894C103.748 46.2577 103.55 45.3597 104.354 44.5752C104.462 49.5742 104.349 54.6617 104.495 59.7416C104.683 66.2666 104.616 72.8037 105.228 79.3131C105.364 80.7657 105.642 82.0601 107.385 82.5383C108.634 82.8814 108.859 84.023 108.875 85.208C108.889 86.253 108.567 86.9338 107.468 87.247C106.18 87.6138 105.778 88.637 106.083 89.854C106.397 91.1099 107.296 91.1599 108.401 90.8344C109.532 90.5009 109.847 91.4284 109.871 92.2082C109.924 93.9565 110.864 94.3343 112.428 94.5989C114.824 95.0039 117.102 96.0244 119.581 96.1354C119.908 96.15 120.325 96.3813 120.526 96.6448C122.368 99.0596 124.992 98.4617 127.424 98.387C128.646 98.3493 129.36 97.4865 129.481 96.1874C129.531 95.6366 129.265 94.6212 130.582 95.1663C131.469 100.325 131.323 100.503 126.235 100.517C119.515 100.535 112.794 100.563 106.074 100.554C103.671 100.551 103.235 100.17 103.212 97.822C103.143 90.5524 103.139 83.2822 103.139 75.8361Z" fill="#E97064"/>
<path d="M24.7676 0.662815C24.2383 1.23068 23.6667 1.48705 23.0369 1.42028C21.2765 1.23367 19.6743 1.94812 17.9974 2.22908C17.2317 2.3574 16.4288 2.60679 16.4673 3.50495C16.5123 4.55862 17.4973 4.30556 18.3274 4.42915C17.1604 5.90476 15.2118 6.78331 14.7314 9.01491C13.759 13.5324 16.1408 16.0801 20.4209 16.4935C22.7852 16.7219 25.1083 16.7883 27.4173 17.5746C37.5169 21.0141 38.4053 33.6497 32.5404 39.6872C27.1032 45.2844 20.7682 46.5705 13.7509 44.3976C7.0111 42.3107 2.62742 37.5258 0.824229 30.5896C-0.931593 23.8356 0.127917 17.4674 3.90637 11.6616C5.74306 8.83943 7.86291 6.13338 11.2907 4.74878C12.9242 6.05206 11.6544 6.88388 10.7758 7.4709C8.47248 9.0099 6.70078 11.027 5.39653 13.3895C3.78241 16.3132 2.0786 19.2678 2.4349 22.8401C2.48934 23.3859 2.51453 23.9531 2.43106 24.4914C1.65417 29.5021 3.74417 33.5551 6.67966 37.3296C7.75171 38.708 9.00549 39.8023 10.7553 40.3067C12.2798 40.7462 13.7402 41.3522 14.9994 42.4129C16.1255 43.3615 17.5755 43.5624 18.994 43.5282C24.1025 43.4051 28.4112 41.6821 31.3825 37.2636C32.0605 36.2554 32.9266 35.389 33.4146 34.2338C34.0188 32.8036 34.243 31.4161 33.4226 30.0076C32.9838 29.2543 33.0205 28.4944 33.3407 27.7164C33.7517 26.7176 33.6518 25.7867 32.8917 24.9917C32.187 24.2546 32.2287 23.1258 31.536 22.41C28.9373 19.7246 25.7484 18.3127 22.028 18.7413C18.9523 19.0956 15.8088 17.6009 13.8425 15.167C12.2373 13.18 12.4914 11.2658 12.9189 9.17157C13.1132 8.22004 13.8392 7.37029 13.7292 6.37682C13.5987 5.19915 12.0283 5.86277 11.5222 4.83742C12.9835 2.62844 15.501 2.25525 17.7026 1.36101C19.8067 0.506377 22.0749 0.282979 24.5054 0.185547C24.8102 0.263715 24.8715 0.400698 24.7676 0.662815Z" fill="#E97064"/>
<path d="M24.8495 0.744138C24.6735 0.620541 24.6703 0.489538 24.6641 0.260721C28.9339 0.136888 33.2068 0.0768512 37.4794 0.0921999C45.4823 0.120967 53.485 0.193425 61.6597 0.273781C61.865 0.373728 61.8985 0.447599 61.8809 0.631895C49.5606 0.74047 37.2914 0.738596 24.8495 0.744138Z" fill="#E97064"/>
<path d="M30.902 4.5988C30.9507 4.7158 30.7927 4.73276 30.7136 4.74064C27.8536 3.72203 25.0722 2.63177 22.0223 3.37361C20.9137 3.64327 19.8435 4.07074 18.6113 4.43514C19.027 3.19857 20.2711 2.9526 21.3578 2.75597C24.2258 2.23699 27.076 2.5087 29.8419 3.47715C30.3345 3.64964 30.6464 4.01576 30.902 4.5988Z" fill="#E97064"/>
<path d="M108.023 0.640138C107.821 0.513231 107.787 0.397487 107.74 0.190639C112.193 -0.124638 116.665 0.0176741 121.287 0.145726C121.492 0.275326 121.547 0.369482 121.469 0.558682C116.953 0.653512 112.569 0.653287 108.023 0.640138Z" fill="#E97064"/>
<path d="M90.5918 44.7846C91.2965 40.7811 92.5337 36.8449 94.6658 33.1152C93.404 36.9286 92.0466 40.8144 90.5918 44.7846Z" fill="#E97064"/>
<path d="M121.481 0.731013C121.361 0.577201 121.378 0.498527 121.42 0.301586C124.111 0.17616 126.777 0.168979 129.611 0.175475C129.794 0.265458 129.81 0.341798 129.852 0.531413C127.139 1.42666 124.38 1.196 121.481 0.731013Z" fill="#E97064"/>
<path d="M87.3773 64.9234C86.8959 64.4882 86.4099 63.9144 85.8263 63.28C85.3722 62.2809 85.9146 61.3467 85.7537 60.2773C86.6485 61.5717 86.9128 63.2122 87.3773 64.9234Z" fill="#E97064"/>
<path d="M86.4184 54.501C86.6783 54.2933 86.9419 54.1821 87.3072 54.0381C86.8702 55.7755 86.3315 57.5458 85.752 59.4443C85.5845 59.2807 85.4578 58.989 85.3145 58.5783C85.323 57.7323 85.387 57.0162 85.9528 56.3106C86.1469 55.9181 86.2587 55.6328 86.4042 55.2376C86.49 55.0711 86.5421 55.0145 86.5147 54.8741C86.4308 54.7261 86.4264 54.6618 86.4184 54.501Z" fill="#E97064"/>
<path d="M87.5645 53.1838C87.6231 51.7231 87.8543 50.1921 89.0879 48.9131C88.596 50.233 88.4743 51.7867 87.5645 53.1838Z" fill="#E97064"/>
<path d="M57.0026 57.5808C56.5489 57.2516 56.0651 56.7975 55.4855 56.2933C55.3582 56.0759 55.3267 55.9085 55.293 55.6131C55.4326 55.489 55.5744 55.4928 55.8227 55.498C56.5673 55.9967 56.7784 56.7218 57.0026 57.5808Z" fill="#E97064"/>
<path d="M104.359 0.100586C104.058 0.820404 103.314 0.954256 102.441 1.10945C102.644 0.219157 103.505 0.297505 104.359 0.100586Z" fill="#E97064"/>
<path d="M130.711 35.5702C130.223 35.0326 130.152 34.3475 130.599 33.5146C130.914 34.072 130.886 34.7578 130.711 35.5702Z" fill="#E97064"/>
<path d="M40.1731 58.252C40.7544 58.4816 40.9262 58.9003 40.2666 59.4679C40.1716 59.1467 40.1633 58.7695 40.1731 58.252Z" fill="#E97064"/>
<path d="M61.9227 0.785856C61.8412 0.667778 61.8411 0.59403 61.842 0.409655C62.2411 0.19419 62.5236 0.39507 62.8384 0.7285C62.5967 0.811471 62.3004 0.820828 61.9227 0.785856Z" fill="#E97064"/>
<path d="M89.3945 48.0614C89.2267 47.8487 89.3042 47.6221 89.6312 47.4219C89.6261 47.5841 89.5507 47.7856 89.3945 48.0614Z" fill="#E97064"/>
<path d="M104.446 38.401C104.31 38.4466 104.075 38.3354 104.057 38.1964C103.627 34.8338 103.326 31.4702 104.334 28.0459C104.442 31.3854 104.444 34.8083 104.446 38.401Z" fill="#E97064"/>
<path d="M104.449 21.4896C103.653 21.1421 103.738 20.3199 103.736 19.5426C103.731 16.8273 103.742 14.112 103.75 11.2295C104.546 11.5861 104.439 12.4131 104.443 13.1851C104.456 15.8966 104.449 18.6081 104.449 21.4896Z" fill="#E97064"/>
<path d="M66.3164 82.417C66.0082 82.0443 65.7966 81.7432 65.5334 81.3438C65.5704 80.4375 65.8692 79.6131 65.2067 78.759C64.4631 77.0116 63.1134 75.6671 62.9453 73.6548C64.2729 73.466 64.8625 75.1097 66.3372 75.0083C66.8979 74.9698 66.545 75.8007 66.503 76.2587C66.3996 77.385 66.7224 77.8578 68.0388 78.1668C70.66 78.7821 72.9186 77.4134 75.3968 77.3096C78.2743 77.1892 78.7684 77.1938 80.095 79.7568C80.4054 80.3565 80.9062 80.4518 81.4667 80.4725C82.7962 80.5215 83.9811 80.1032 85.1096 79.4081C87.3965 77.9994 88.4801 78.4269 89.155 80.9631C89.42 81.9585 89.7442 82.7926 91.117 82.017C93.2369 85.2352 93.6468 89.1157 95.2935 92.5253C95.7731 93.5185 95.5977 94.634 95.09 96.0428C94.0034 92.6438 91.358 90.6179 90.0964 87.719C89.9756 87.4414 89.7988 87.1247 89.4285 87.254C89.0815 87.3752 89.0633 87.74 89.1313 88.0335C89.6232 90.1563 89.3229 92.0233 87.5904 93.5463C87.0796 93.9954 87.2471 94.6809 87.4957 95.2715C87.9579 96.3695 87.5112 96.9649 86.4094 96.9993C84.5757 97.0565 82.7379 97.0445 80.9035 96.9967C79.832 96.9688 79.201 96.3296 79.1223 95.2624C79.0178 93.846 78.1638 93.3757 76.8985 93.394C75.2479 93.4178 73.5943 93.4191 71.9486 93.5285C71.1218 93.5834 70.3575 93.4552 70.111 92.6768C69.2589 89.9865 66.9361 87.8847 66.9743 84.6958C68.0399 83.5291 67.5394 82.9263 66.3164 82.417Z" fill="#E97064"/>
<path d="M62.2609 70.4885C61.1893 69.064 60.7038 67.3392 60.0195 65.5547C62.2152 67.0183 63.0785 68.8269 62.2609 70.4885Z" fill="#E97064"/>
<path d="M88.9895 75.0967C89.4777 75.7202 89.9457 76.4392 90.1108 77.4339C89.0518 77.1199 88.7009 76.3113 88.9895 75.0967Z" fill="#E97064"/>
<path d="M85.9361 56.2549C86.0222 56.9274 85.85 57.6136 85.3832 58.3453C84.9466 57.6107 84.8975 56.8429 85.9361 56.2549Z" fill="#E97064"/>
<path d="M86.4512 54.8712C86.4979 54.8676 86.5108 54.9529 86.4709 55.0834C86.4529 55.1241 86.452 54.9555 86.4512 54.8712Z" fill="#E97064"/>
<path d="M66.2637 82.4669C67.0858 81.8195 68.0502 81.2574 68.5965 82.5799C69.0617 83.7061 68.4626 84.4052 67.1069 84.5356C66.7438 83.8948 66.5205 83.2432 66.2637 82.4669Z" fill="#E97064"/>
<path d="M89.7148 95.371C90.1575 94.7274 90.6506 94.3289 91.2479 94.9196C91.6111 95.2788 91.4216 95.768 91.0053 95.9942C90.4191 96.3127 89.8117 96.4423 89.7148 95.371Z" fill="#E97064"/>
<path d="M65.1172 78.8105C66.3552 79.2211 66.4387 80.0459 65.5753 81.1545C65.0906 80.526 65.1194 79.7412 65.1172 78.8105Z" fill="#E97064"/>
<path d="M96.5398 97.8888C96.1444 97.5225 96.1022 97.201 96.5493 96.9899C96.7888 96.8768 97.0478 97.0106 97.1385 97.2538C97.3069 97.7055 97.1103 97.9387 96.5398 97.8888Z" fill="#E97064"/>
<path d="M11.441 4.75319C12.1719 4.76898 12.8922 4.71888 13.5465 4.29382C14.0048 3.99612 14.5066 3.61788 15.0388 4.1019C15.5299 4.54855 15.2906 5.12839 15.1711 5.65721C14.7678 7.44287 13.7547 9.02353 13.5832 10.9088C13.3123 13.888 15.6892 16.7877 18.6069 17.3369C21.7051 17.92 24.9199 17.1826 27.9772 18.7891C30.2153 19.9652 32.3117 20.9291 33.2013 23.478C33.3547 23.9173 33.7654 24.2623 34.0294 24.669C34.2924 25.0742 34.8301 25.6359 34.7162 25.8997C33.4075 28.931 36.0559 32.1191 34.116 35.2044C31.3956 39.531 28.1228 42.9973 22.9148 44.055C21.5461 44.333 20.1199 44.4494 18.7225 44.4336C16.8842 44.4129 15.0999 44.1882 13.7012 42.66C12.9158 41.8019 11.6693 41.5195 10.55 41.2535C9.04201 40.8951 7.83767 40.1361 6.88786 38.9663C5.15596 36.8335 3.47582 34.6586 2.33738 32.1301C1.59558 30.4826 1.29168 28.7806 1.46577 26.9487C1.61574 25.3705 1.59531 23.765 1.51445 22.1784C1.33423 18.6427 2.99609 15.7507 4.58961 12.8053C5.9791 10.237 7.8488 8.16359 10.3628 6.66272C10.9599 6.30619 11.3236 5.72767 11.4136 4.87431C11.4272 4.74178 11.4533 4.76686 11.441 4.75319Z" fill="#E97064"/>
</svg>
